# xmcd
#
# Track frame offsets:
# 150
# 9696
# 18857
# 29455
# 39908
# 49545
# 58655
# 69283
# 80136
# 90689
# 101072
# 112413
#
# Disc length: 1643 seconds
#
#
# Revision: 0
# Processed by: cddbd v1.4PL0 Copyright (c) Steve Scherf et al.
# Submitted via: FreeRIP 2.00 
#
DISCID=9906690c
DTITLE=George Jones - I'm A People
DYEAR=1966
DGENRE=Country
TTITLE0=I'm A People
TTITLE1=Don't Think I Don't love You (skips)
TTITLE2=Ship Of Love
TTITLE3=Once A Day
TTITLE4=If You Believe
TTITLE5=Blindfold Of Love
TTITLE6=Four-0-Thirty Three
TTITLE7=I Don't Love You Anymore
TTITLE8=The Lonely Know My Secret
TTITLE9=World Of Forgotten People
TTITLE10=I Woke Up From Dreaming
TTITLE11=Old Brush Arbors
EXTD=Musicor MS 3099
EXTT0=
EXTT1=
EXTT2=
EXTT3=
EXTT4=
EXTT5=
EXTT6=
EXTT7=
EXTT8=
EXTT9=
EXTT10=
EXTT11=
PLAYORDER=
